<?xml version="1.0" encoding="utf-8"?>
<svg xmlns="http://www.w3.org/2000/svg"
	xmlns:xlink="http://www.w3.org/1999/xlink"
	width="10px" height="5px" viewBox="0 0 10 5">
<path fillRule="evenodd" d="M 4.51 4.82C 4.51 4.82 0.21 1.05 0.21 1.05-0.07 0.81-0.07 0.42 0.21 0.18 0.48-0.06 0.92-0.06 1.2 0.18 1.2 0.18 5 3.52 5 3.52 5 3.52 8.81 0.18 8.81 0.18 9.08-0.06 9.52-0.06 9.8 0.18 10.07 0.42 10.07 0.81 9.8 1.05 9.8 1.05 5.5 4.82 5.5 4.82 5.36 4.94 5.18 5 5 5 4.82 5 4.64 4.94 4.51 4.82Z" fill="rgb(39,207,127)"/></svg>