<svg xmlns="http://www.w3.org/2000/svg" width="58.969" height="70" viewBox="0 0 58.969 70">
  <defs>
    <style>
      .cls-1 {
        fill: #574d19;
        fill-rule: evenodd;
      }
    </style>
  </defs>
  <path id="_" data-name="%" class="cls-1" d="M655.727,2381.55l-20.374-20.19a1.229,1.229,0,0,0-1.738,0l-20.346,20.19a28.244,28.244,0,0,0,0,39.94l1.232,1.23a28.287,28.287,0,0,0,39.994,0l1.232-1.23A28.244,28.244,0,0,0,655.727,2381.55Zm-1.738,38.2-1.232,1.24a25.849,25.849,0,0,1-36.519,0l-1.231-1.24a25.776,25.776,0,0,1,0-36.46l19.484-19.32,19.5,19.33A25.766,25.766,0,0,1,653.989,2419.75Zm-2.613-4.33a1.229,1.229,0,0,0-1.738,0l-1.232,1.23a19.688,19.688,0,0,1-27.83,0l-1.232-1.23a1.229,1.229,0,0,0-1.737,1.74l1.231,1.23a22.146,22.146,0,0,0,31.306,0l1.232-1.23A1.235,1.235,0,0,0,651.376,2415.42Zm-23.217-18.39a4.918,4.918,0,0,0,3.4-1.12,4.225,4.225,0,0,0,1.389-3.03q0.065-1.08.064-1.44,0-.375-0.064-1.53a4.507,4.507,0,0,0-1.357-3.13,4.858,4.858,0,0,0-3.432-1.15,4.8,4.8,0,0,0-3.416,1.15,4.532,4.532,0,0,0-1.34,3.13c-0.022.38-.032,0.9-0.032,1.53q0,0.9.032,1.44a4.22,4.22,0,0,0,1.388,3.03,4.871,4.871,0,0,0,3.368,1.12h0Zm-2.586,11.11h1.692a1.167,1.167,0,0,0,.607-0.14,2.124,2.124,0,0,0,.479-0.47l15.739-20.75a0.531,0.531,0,0,0,.128-0.35,0.627,0.627,0,0,0-.176-0.46,0.66,0.66,0,0,0-.5-0.18h-1.692a1.137,1.137,0,0,0-.638.15,2.03,2.03,0,0,0-.479.46L625,2407.15a0.55,0.55,0,0,0-.128.35,0.583,0.583,0,0,0,.192.46,0.712,0.712,0,0,0,.51.18h0Zm2.586-13.5a1.611,1.611,0,0,1-1.356-.56,2.493,2.493,0,0,1-.5-1.36c-0.022-.36-0.032-0.81-0.032-1.34,0-.55.01-0.99,0.032-1.31a2.463,2.463,0,0,1,.511-1.39,1.619,1.619,0,0,1,1.34-.56,1.661,1.661,0,0,1,1.373.56,2.478,2.478,0,0,1,.511,1.39c0.042,0.64.064,1.08,0.064,1.31,0,0.17-.022.62-0.064,1.34a2.636,2.636,0,0,1-.527,1.37,1.608,1.608,0,0,1-1.357.55h0Zm12.77,13.69a4.842,4.842,0,0,0,3.4-1.16,4.473,4.473,0,0,0,1.389-3.12c0.042-.72.064-1.2,0.064-1.43s-0.022-.74-0.064-1.5a4.518,4.518,0,0,0-1.341-3.13,5.7,5.7,0,0,0-6.864,0,4.518,4.518,0,0,0-1.341,3.13q-0.032.57-.031,1.5c0,0.59.01,1.07,0.031,1.43a4.473,4.473,0,0,0,1.389,3.12,4.8,4.8,0,0,0,3.368,1.16h0Zm0-2.49a1.584,1.584,0,0,1-1.356-.56,2.46,2.46,0,0,1-.5-1.35c-0.022-.37-0.032-0.82-0.032-1.38,0-.53.01-0.95,0.032-1.27a2.436,2.436,0,0,1,.511-1.39,1.619,1.619,0,0,1,1.34-.56,1.661,1.661,0,0,1,1.373.56,2.45,2.45,0,0,1,.511,1.39c0.042,0.63.064,1.06,0.064,1.27q0,0.285-.064,1.38a2.476,2.476,0,0,1-.5,1.35,1.624,1.624,0,0,1-1.389.56h0Z" transform="translate(-605.031 -2361)"/>
</svg>
