<svg xmlns="http://www.w3.org/2000/svg" width="91.312" height="150.72" viewBox="0 0 91.312 150.72">
  <defs>
    <style>
      .cls-1 {
        fill: #333;
        fill-rule: evenodd;
        opacity: 0.1;
      }
    </style>
  </defs>
  <path id="_1" data-name="1" class="cls-1" d="M418.552,3773.33h29.5a5.6,5.6,0,0,0,3.983-1.51,5.044,5.044,0,0,0,1.614-3.87V3628a5.044,5.044,0,0,0-1.614-3.87,5.6,5.6,0,0,0-3.983-1.51h-28.42a8.379,8.379,0,0,0-4.952,1.51l-49.951,38.54a5.522,5.522,0,0,0-2.368,4.73,6.38,6.38,0,0,0,.861,3.23l13.349,17.23a5.589,5.589,0,0,0,4.521,2.58,6.158,6.158,0,0,0,3.23-1.08l28.851-22.17v100.76a5.509,5.509,0,0,0,5.382,5.38h0Z" transform="translate(-362.344 -3622.62)"/>
</svg>
