<svg xmlns="http://www.w3.org/2000/svg" width="122.937" height="153.53" viewBox="0 0 122.937 153.53">
  <defs>
    <style>
      .cls-1 {
        fill: #333;
        fill-rule: evenodd;
        opacity: 0.1;
      }
    </style>
  </defs>
  <path id="_2" data-name="2" class="cls-1" d="M756.761,3773.33H868.934a5.085,5.085,0,0,0,3.875-1.61,5.359,5.359,0,0,0,1.507-3.77v-23.04a5.166,5.166,0,0,0-5.382-5.38H814.462l17.87-17.87q19.59-14.64,29.174-27.13a44.831,44.831,0,0,0,9.581-27.99q0-13.995-6.782-24.54t-19.916-16.37q-13.134-5.8-31.218-5.81-17.441,0-30.789,6.78a52.274,52.274,0,0,0-20.776,18.3,49.325,49.325,0,0,0-7.859,25.73,4.3,4.3,0,0,0,1.4,3.12,4.529,4.529,0,0,0,3.338,1.4H786.9q6.024,0,7.32-4.95a26.145,26.145,0,0,1,6.028-12.59q4.523-5.055,12.919-5.06,15.93,0,15.932,15.93,0,6.24-5.49,13.24a106.411,106.411,0,0,1-15.933,15.61q-10.444,8.61-30.9,24.11l-20.023,19.6a13.237,13.237,0,0,0-5.382,10.76v16.15a5.509,5.509,0,0,0,5.382,5.38h0Z" transform="translate(-751.375 -3619.81)"/>
</svg>
