<svg xmlns="http://www.w3.org/2000/svg" width="127.91" height="152.85" viewBox="0 0 127.91 152.85">
  <defs>
    <style>
      .cls-1 {
        fill: #333;
        fill-rule: evenodd;
        opacity: 0.1;
      }
    </style>
  </defs>
  <path id="_3" data-name="3" class="cls-1" d="M1207.99,3775.48q18.51,0,33.04-5.81t22.83-16.68a40.621,40.621,0,0,0,8.29-25.3q0-19.815-11.42-30.36-11.4-10.545-30.78-13.35l-1.51-.43,31.86-29.07a8.382,8.382,0,0,0,3.45-7.1v-19.16a5.661,5.661,0,0,0-1.51-3.99,5.077,5.077,0,0,0-3.87-1.61H1158.04a5.069,5.069,0,0,0-3.88,1.61,5.617,5.617,0,0,0-1.51,3.99v21.31a5.519,5.519,0,0,0,5.39,5.38h59.42l-34.66,28.42c-2.45,1.59-3.66,4.02-3.66,7.32v12.71a5.516,5.516,0,0,0,5.59,5.6h24.12q21.525,0,21.53,16.14,0,8.4-5.82,13.35-5.8,4.965-16.36,4.95-18.525,0-22.61-10.55a9.4,9.4,0,0,0-2.79-3.12,7.581,7.581,0,0,0-4.1-.97h-29.71a4.7,4.7,0,0,0-3.33,1.3,4.17,4.17,0,0,0-1.4,3.22q0.42,9.69,7.21,19.38t21.1,16.26q14.31,6.57,35.42,6.56h0Z" transform="translate(-1144.25 -3622.62)"/>
</svg>
