<svg xmlns="http://www.w3.org/2000/svg" width="59" height="65" viewBox="0 0 59 65">
  <defs>
    <style>
      .cls-1 {
        fill: #574d19;
        fill-rule: evenodd;
      }
    </style>
  </defs>
  <path id="Forma_1" data-name="Forma 1" class="cls-1" d="M584.852,2118.16l-3.865-7.95a1.4,1.4,0,0,0-1.818-.69l-3.932,1.73a2.73,2.73,0,0,0-2.653-1.62,2.784,2.784,0,0,0-2.62,2.32c-0.153.81-.254,1.7-0.351,2.56a12.942,12.942,0,0,1-.952,4.38,7.316,7.316,0,0,0-.941,3.46,10.654,10.654,0,0,1-8.32,2.94c-0.975-.15-2.279-0.43-3.66-0.72-1.039-.22-2.156-0.46-3.3-0.68a15.427,15.427,0,0,0-.189-15.45l-0.924-1.54c0.08-.14.16-0.27,0.241-0.4a20.924,20.924,0,0,0,2.711-14.6,7.014,7.014,0,0,0-.19-0.74,12.692,12.692,0,0,0-11.466-9.03l-2.437-.12a12.636,12.636,0,0,0-12.214,7.84,18.252,18.252,0,0,0,.891,15.78,26.134,26.134,0,0,0-2.814,11.31c-0.374,7.43,1.29,16.31,4.945,26.38,0.014,0.04.029,0.07,0.046,0.11a5.759,5.759,0,0,0,3.743,3.09,12.082,12.082,0,0,0,3.574.48,30.4,30.4,0,0,0,8.094-1.34,52.418,52.418,0,0,0,12.172-5.35c8.185-5.04,19.109-11.15,19.218-11.21a1.333,1.333,0,0,0,.465-0.42l6.422-9.02A1.478,1.478,0,0,0,584.852,2118.16Zm-8.64,8.56c-1.764.99-11.538,6.49-19.041,11.11-6.588,4.05-16.826,7.4-21.565,5.92a3.041,3.041,0,0,1-1.988-1.5c-6.927-19.13-4.911-29.38-2.871-34.03,0.283,0.37.557,0.74,0.817,1.12a1.393,1.393,0,0,0,1.966.36,1.476,1.476,0,0,0,.346-2.02c-0.451-.66-0.936-1.3-1.444-1.91a10.638,10.638,0,0,1-.88-1.17,15.259,15.259,0,0,1-.979-13.62,9.817,9.817,0,0,1,9.483-6.08l2.437,0.12a9.858,9.858,0,0,1,8.9,7,3.842,3.842,0,0,1,.108.41,17.942,17.942,0,0,1-2.328,12.53c-0.943,1.55-1.8,3.02-2.541,4.36a1.461,1.461,0,0,0,.531,1.97,1.359,1.359,0,0,0,.7.19,1.4,1.4,0,0,0,1.229-.73c0.192-.35.391-0.7,0.6-1.06l0.16,0.26a12.471,12.471,0,0,1-.435,13.43,27.207,27.207,0,0,0-4.533-.34,1.451,1.451,0,0,0,.075,2.9c2.919-.09,6.965.77,10.214,1.46,1.482,0.32,2.761.59,3.811,0.75a8.986,8.986,0,0,0,1.334.1,14.11,14.11,0,0,0,7.688-2.39,18.06,18.06,0,0,0,.519,2.09,1.423,1.423,0,0,0,1.338.99,1.394,1.394,0,0,0,.445-0.08,1.457,1.457,0,0,0,.9-1.83,16.141,16.141,0,0,1-.569-2.67,6.515,6.515,0,0,1,.426-3.94c0.9-1.47,1.134-3.56,1.362-5.57,0.091-.81.178-1.58,0.3-2.26a21.937,21.937,0,0,1,.078,8.8,1.447,1.447,0,0,0,1.08,1.72,1.407,1.407,0,0,0,1.679-1.1c0.015-.08.137-0.66,0.256-1.58l2.675-2.09a1.475,1.475,0,0,0,.266-2.03,1.381,1.381,0,0,0-1.979-.27l-0.727.57a21.754,21.754,0,0,0-.161-2.5l3.168-1.39,2.889,5.95Z" transform="translate(-526 -2082)"/>
</svg>
