<svg xmlns="http://www.w3.org/2000/svg" width="16" height="16" viewBox="0 0 16 16">
  <defs>
    <style>
      .cls-1 {
        fill: #abb0b3;
        fill-rule: evenodd;
      }
    </style>
  </defs>
  <path id="Forma_1" data-name="Forma 1" class="cls-1" d="M942.134,532a7.866,7.866,0,0,0-6.828,11.773l-1.292,3.876a0.266,0.266,0,0,0,.321.342l4.231-1.113A7.867,7.867,0,1,0,942.134,532Zm4.908,11.439-0.468.469a2.741,2.741,0,0,1-1.963.892h0a4.576,4.576,0,0,1-3.067-1.625l-2.719-2.718A5.373,5.373,0,0,1,937.272,538a2.641,2.641,0,0,1,.821-2.575l0.469-.47a1.011,1.011,0,0,1,1.167-.175,5.519,5.519,0,0,1,1.527,1.746,1,1,0,0,1,.129.753,0.7,0.7,0,0,1-.317.414,6.743,6.743,0,0,0-.513.462,0.721,0.721,0,0,0,.11,1.056l2.123,2.123a0.717,0.717,0,0,0,1.059.106c0.054-.042.278-0.295,0.459-0.51a0.7,0.7,0,0,1,.623-0.344,1.108,1.108,0,0,1,.541.154,5.528,5.528,0,0,1,1.748,1.529A0.988,0.988,0,0,1,947.042,543.439Z" transform="translate(-934 -532)"/>
</svg>
