<svg xmlns="http://www.w3.org/2000/svg" width="17.969" height="16" viewBox="0 0 17.969 16">
  <defs>
    <style>
      .cls-1 {
        fill: #abb0b3;
        fill-rule: evenodd;
      }
    </style>
  </defs>
  <path class="cls-1" d="M933.318,567.672l4.148,1.58,1.605,5.272a0.484,0.484,0,0,0,.775.238l2.312-1.924a0.678,0.678,0,0,1,.841-0.024l4.17,3.091a0.486,0.486,0,0,0,.766-0.3l3.055-15a0.493,0.493,0,0,0-.655-0.567l-17.022,6.7A0.5,0.5,0,0,0,933.318,567.672Zm5.494,0.739,8.106-5.1a0.143,0.143,0,0,1,.171.228l-6.69,6.349a1.427,1.427,0,0,0-.43.847l-0.228,1.724a0.209,0.209,0,0,1-.409.031l-0.876-3.144A0.842,0.842,0,0,1,938.812,568.411Z" transform="translate(-933.031 -560)"/>
</svg>
