<svg xmlns="http://www.w3.org/2000/svg" width="37" height="65" viewBox="0 0 37 65">
  <defs>
    <style>
      .cls-1 {
        fill: #574d19;
        fill-rule: evenodd;
      }
    </style>
  </defs>
  <path id="Фигура_4" data-name="Фигура 4" class="cls-1" d="M1303.6,2423.86l-5.64-5.11-0.05-2.43a1.355,1.355,0,0,0-.43-0.95l-0.6-.53c3.82-14.18,2.49-19.72,1.12-21.84,3.13-5.54,3.73-12.14,1.73-19.13a34.885,34.885,0,0,0-4.19-9.31,1.35,1.35,0,0,0-1.1-.56h-17.8a1.347,1.347,0,0,0-1.1.57c-0.42.61-10.01,14.98-2.49,28.36-1.4,2.1-2.77,7.62,1.08,21.92l-0.59.52a1.326,1.326,0,0,0-.44.95l-0.05,2.44-5.62,5.08a1.36,1.36,0,0,0-.43.97v2.87a1.327,1.327,0,0,0,1.33,1.32h7.84a1.335,1.335,0,0,0,.79-0.26l4.8-3.56a1.373,1.373,0,0,0,.52-0.99l0.34-7.51a1.337,1.337,0,0,0-.78-1.27l-0.22-.09a17.494,17.494,0,0,1,1.2-6.77,17.884,17.884,0,0,0,1-15.31c0.16-.56.99-3.63,1.72-6.87,0.59,2.59,1.26,5.17,1.69,6.77a17.665,17.665,0,0,0,.95,15.41,17.305,17.305,0,0,1,1.2,6.77l-0.22.1a1.3,1.3,0,0,0-.78,1.26l0.35,7.49a1.3,1.3,0,0,0,.52,1.02l4.79,3.55a1.343,1.343,0,0,0,.8.26h7.83a1.327,1.327,0,0,0,1.33-1.32v-2.87A1.341,1.341,0,0,0,1303.6,2423.86Zm-33.93,2.5v-0.96l5.59-5.07a1.348,1.348,0,0,0,.44-0.95l0.05-2.43,1.01-.89,2.19,0.97a1.5,1.5,0,0,0-.22-0.02,1.327,1.327,0,0,0-1.33,1.32v2.39l-1.65,1.62a1.315,1.315,0,0,0,.93,2.25,1.29,1.29,0,0,0,.94-0.38l2.06-2.01c0.01-.01.02-0.03,0.03-0.04l-0.06,1.29-3.92,2.91h-6.06Zm9.89-9.06,0.36,0.16-0.01.26A1.428,1.428,0,0,0,1279.56,2417.3Zm-0.59-3.15-1.92-.85a1.447,1.447,0,0,0-.54-0.11h-0.07c-4.02-15.53-1.16-18.84-.96-19.05a1.289,1.289,0,0,0,.37-1.74,0.964,0.964,0,0,0-.18-0.23c-4.07-6.78-3.03-14.01-1.3-19.1,3.76,1.68,8.05,4.04,9.7,6.01,0.06,2.61-2.38,11.92-2.84,13.56l-0.01.03c-0.01.04-.01,0.08-0.02,0.12a1.325,1.325,0,0,0,.01,1.15,15.324,15.324,0,0,1-.75,13.4A19.521,19.521,0,0,0,1278.97,2414.15Zm14.74-47.51a30.95,30.95,0,0,1,2.04,3.96c-2.33,1.04-7.53,3.53-10.21,6.16-2.62-2.59-7.58-4.99-10.21-6.16a31.86,31.86,0,0,1,2.04-3.96h16.34Zm-3.92,27.31a1.3,1.3,0,0,0,.11-0.89,1.071,1.071,0,0,0-.04-0.4l-0.01-.04c-1.09-4.02-2.89-11.31-2.83-13.54,1.99-2.4,7.51-5.03,9.7-6.01,1.72,5.06,2.76,12.23-1.23,18.98a1.073,1.073,0,0,0-.29.31,1.324,1.324,0,0,0,.32,1.78c0.15,0.15,3.1,3.37-.96,19.05a1.475,1.475,0,0,0-.61.12l-1.91.84a19.639,19.639,0,0,0-1.49-6.81A15.374,15.374,0,0,1,1289.79,2393.95Zm5.79,0.23a0.113,0.113,0,0,1-.06-0.04,0.031,0.031,0,0,0,.02.01Zm-4.14,23.12a1.332,1.332,0,0,0-.34.41l-0.01-.25Zm-0.1,4.9,2.04,2.01a1.323,1.323,0,0,0,.94.38,1.315,1.315,0,0,0,.94-2.25l-1.65-1.62v-2.39a1.33,1.33,0,0,0-1.34-1.32,1.492,1.492,0,0,0-.21.02l2.19-.97,1,0.89,0.06,2.44a1.3,1.3,0,0,0,.43.93l5.6,5.07v0.97h-6.06l-3.92-2.91-0.06-1.29A0.078,0.078,0,0,0,1291.34,2422.2Zm0.37-15.05a1.421,1.421,0,0,0,.42-0.06,1.344,1.344,0,0,0,.78-0.66,1.251,1.251,0,0,0,.07-1,17.673,17.673,0,0,1-.32-8.86l0.01-.04a1.338,1.338,0,0,0-.97-1.6,1.356,1.356,0,0,0-1.02.15,1.3,1.3,0,0,0-.6.8,20.3,20.3,0,0,0,.37,10.37A1.325,1.325,0,0,0,1291.71,2407.15Zm1.08-15.24,0.02,0.01a1.333,1.333,0,0,0,.74.22,1.369,1.369,0,0,0,1.09-.54c3.56-4.95,2.42-13.15,2.37-13.51a1.347,1.347,0,0,0-1.51-1.11,1.331,1.331,0,0,0-1.13,1.5,24.318,24.318,0,0,1,.16,4.37c-0.11,2.13-.56,5.12-2.06,7.21A1.312,1.312,0,0,0,1292.79,2391.91Zm-13.95-.87a1.264,1.264,0,0,0-.23-0.98c-2.8-3.89-2.01-10.8-1.91-11.58l0.01-.01a1.333,1.333,0,0,0-2.64-.37c-0.05.34-1.22,8.51,2.38,13.5a1.326,1.326,0,0,0,1.85.3A1.3,1.3,0,0,0,1278.84,2391.04Zm2.08,4.85a1.319,1.319,0,0,0-.62-0.82,1.281,1.281,0,0,0-1.01-.13,1.327,1.327,0,0,0-.95,1.61,17.755,17.755,0,0,1-.32,8.89,1.29,1.29,0,0,0,.08,1,1.271,1.271,0,0,0,.77.65,1.141,1.141,0,0,0,.41.07,1.337,1.337,0,0,0,1.27-.91A19.978,19.978,0,0,0,1280.92,2395.89Z" transform="translate(-1267 -2364)"/>
</svg>
