<svg xmlns="http://www.w3.org/2000/svg" width="16" height="18" viewBox="0 0 16 18">
  <defs>
    <style>
      .cls-1 {
        fill: #abb0b3;
        fill-rule: evenodd;
      }
    </style>
  </defs>
  <path id="Фигура_2" data-name="Фигура 2" class="cls-1" d="M946.4,502.409a22.976,22.976,0,0,0-8.823,0,5.137,5.137,0,0,0-3.207,3.138,17.6,17.6,0,0,0,0,7.4,5.14,5.14,0,0,0,3.207,3.138h0a0.122,0.122,0,0,1,.1.121v3.6a0.2,0.2,0,0,0,.337.138l1.672-1.754,1.572-1.649a0.12,0.12,0,0,1,.089-0.037,23.008,23.008,0,0,0,5.054-.417,5.14,5.14,0,0,0,3.207-3.138,17.6,17.6,0,0,0,0-7.4A5.137,5.137,0,0,0,946.4,502.409Zm0.045,10.72a2.746,2.746,0,0,1-1.166,1.312,2.715,2.715,0,0,1-.5.165c-0.2-.061-0.384-0.1-0.558-0.176A11.5,11.5,0,0,1,937.6,508.3c-0.235-.487-0.433-0.994-0.634-1.5a1.317,1.317,0,0,1,.372-1.279,2.937,2.937,0,0,1,.985-0.757,0.623,0.623,0,0,1,.791.192,10.4,10.4,0,0,1,1.224,1.75,0.846,0.846,0,0,1-.229,1.129c-0.092.064-.177,0.139-0.263,0.212a0.867,0.867,0,0,0-.2.215,0.6,0.6,0,0,0-.038.515,4.631,4.631,0,0,0,2.562,2.9,1.28,1.28,0,0,0,.656.162,1.854,1.854,0,0,0,.813-0.732,0.753,0.753,0,0,1,.922-0.042c0.3,0.192.583,0.4,0.869,0.605a10.269,10.269,0,0,1,.817.636A0.673,0.673,0,0,1,946.445,513.129Zm-2.331-4.3c-0.112,0-.068,0-0.026,0a0.292,0.292,0,0,1-.3-0.291,3.108,3.108,0,0,0-.055-0.387,1.089,1.089,0,0,0-.392-0.627,0.989,0.989,0,0,0-.319-0.157c-0.145-.044-0.295-0.032-0.44-0.068a0.275,0.275,0,0,1-.219-0.32,0.284,0.284,0,0,1,.3-0.232,1.639,1.639,0,0,1,1.663,1.652,0.764,0.764,0,0,1,0,.234,0.237,0.237,0,0,1-.2.2C944.134,508.826,944.133,508.828,944.114,508.829Zm-0.57-2.52a3.183,3.183,0,0,0-.892-0.28c-0.135-.023-0.271-0.037-0.406-0.056a0.261,0.261,0,0,1-.244-0.294,0.257,0.257,0,0,1,.283-0.257,3.653,3.653,0,0,1,1.547.412,3.2,3.2,0,0,1,1.7,2.485c0.008,0.05.019,0.1,0.023,0.152,0.009,0.125.015,0.25,0.025,0.416a1.186,1.186,0,0,1-.023.168,0.266,0.266,0,0,1-.5.027,0.72,0.72,0,0,1-.029-0.233,2.967,2.967,0,0,0-.362-1.466A2.7,2.7,0,0,0,943.544,506.309Zm3.028,3.454a0.306,0.306,0,0,1-.287-0.333c-0.024-.343-0.041-0.688-0.087-1.029a4.274,4.274,0,0,0-3.4-3.6c-0.263-.048-0.533-0.061-0.8-0.089a0.387,0.387,0,0,1-.427-0.243,0.292,0.292,0,0,1,.285-0.332c0.045,0,.091,0,0.137,0,2.268,0.065.138,0,.006,0a4.83,4.83,0,0,1,4.711,4.054c0.071,0.407.1,0.823,0.127,1.235A0.288,0.288,0,0,1,946.572,509.763Z" transform="translate(-934 -502)"/>
</svg>
