<svg xmlns="http://www.w3.org/2000/svg" width="44" height="76" viewBox="0 0 44 76">
  <defs>
    <style>
      .cls-1 {
        fill: #574d19;
        fill-rule: evenodd;
      }
    </style>
  </defs>
  <path id="Фигура_5" data-name="Фигура 5" class="cls-1" d="M1379.31,2149.07l-0.65-.45a5.124,5.124,0,0,0-2.45-.89l-1.01-.09a0.64,0.64,0,0,1-.55-0.39c-0.34-.79-0.82-1.88-1.32-3.01h0.01s0.67-.01.86-0.02a20.623,20.623,0,0,0,3.19-.27,1.263,1.263,0,0,0,.39-2.33,8.112,8.112,0,0,0-1.6-.67c1.07-2.08,1.97-4.74.87-6.57a2.831,2.831,0,0,0-2.43-1.38,2.784,2.784,0,0,0-.58.06,5.165,5.165,0,0,0-1.07.36,4.884,4.884,0,0,0-2.65-1.76l-0.09-.4c0.06-.81.18-4.09-1.5-6.04-0.45-.52-1.08-1.13-1.83-1.85-2.03-1.96-4.82-4.64-5.94-7.56a4.544,4.544,0,0,0-2.86-2.91l-3.03-9.5a2.445,2.445,0,0,1-.09-1.04c0.23-1.89.38-7.21-3.32-15.83a6.254,6.254,0,0,0-.06-2.5,2.676,2.676,0,0,1-.06-0.52c0.01-.29.04-6.98-4.2-7.45-1.02-.12-2.44-0.15-3.05.86a2.555,2.555,0,0,0,.29,2.52c0.03,0.05.05,0.1,0.08,0.15a39.61,39.61,0,0,1,1.96,6.65,2.812,2.812,0,0,0,.94,1.77,1.074,1.074,0,0,1,.52.69c0.02,0.14.03,0.64,0.05,1.21v0.05c0.08,2.52.23,7.77,1,9.9a1.8,1.8,0,0,1,.11.66c-0.01,3.16.39,13.82,0.45,15.57-0.84,1.59-5.96,11.38-7.19,15.11-1.7,1.92-3.57,4.76-3.98,6.88a29.4,29.4,0,0,1-2.16,6.2,2.4,2.4,0,0,0-.16,2.23,2.735,2.735,0,0,0,1.99,1.4c0.22,0.05.63,0.18,1.07,0.32a13.608,13.608,0,0,0,3.66.8,3.333,3.333,0,0,0,.46-0.03,4.711,4.711,0,0,0,2.03-.85,1.682,1.682,0,0,0-.45-2.99c-2.41-.76-3.28-1.42-3.46-1.66a23.337,23.337,0,0,1,3.3-5.14,7.1,7.1,0,0,0,.82-1.41,11.777,11.777,0,0,0,.72-1.92c0.3-.53,3.01-3.6,7.04-7.83l4.46,2.37a3.626,3.626,0,0,0,.5,1.72c0.41,0.67,1.92,1.43,4.47,2.26l0.67,0.41a2.3,2.3,0,0,0,.2,2.78,5.708,5.708,0,0,0,2.24,1.69l1.41,4.01a4.376,4.376,0,0,0,.45.89l4.71,6.96a3.046,3.046,0,0,0,2.02,1.28l2.46,0.4a0.66,0.66,0,0,0,.14.01l1.25,0.02h0.02A1.612,1.612,0,0,0,1379.31,2149.07Zm-29.53-62.06c2.62,6.01,3.29,10.29,3.38,12.91a4.734,4.734,0,0,1-2.05-.02,4.506,4.506,0,0,0-.17-0.68c-0.67-1.85-.82-6.89-0.89-9.32h0c-0.03-.73-0.04-1.18-0.06-1.39a2.882,2.882,0,0,0-1.16-1.93,0.9,0.9,0,0,1-.31-0.58,40.412,40.412,0,0,0-2.15-7.27c-0.03-.05-0.06-0.11-0.09-0.17a5.472,5.472,0,0,1-.28-0.61,2.187,2.187,0,0,1,.46-0.04,5.4,5.4,0,0,1,.66.04c2.49,0.28,2.51,5.48,2.51,5.53a4.492,4.492,0,0,0,.1.94,4.466,4.466,0,0,1,.02,1.93A0.94,0.94,0,0,0,1349.78,2087.01Zm-5.86,59.82a2.7,2.7,0,0,1-.79.28,1.342,1.342,0,0,1-.21.01,12.718,12.718,0,0,1-3.1-.72c-0.5-.16-0.94-0.29-1.25-0.36a0.949,0.949,0,0,1-.64-0.35,0.665,0.665,0,0,1,.12-0.51,30.625,30.625,0,0,0,2.35-6.75,7.856,7.856,0,0,1,.8-2.06,7.255,7.255,0,0,0,1.71,1.31c-1.42,1.92-3.02,4.26-3.3,5.49C1339.21,2144.97,1341.74,2146.1,1343.92,2146.83Zm0-10.77a5.5,5.5,0,0,1-1.68-1.41,20.75,20.75,0,0,1,1.82-2.32,0.981,0.981,0,0,0,.2-0.36c0.81-2.6,4.12-9.18,6.02-12.86a1.889,1.889,0,0,1,1.21-1.1,3.779,3.779,0,0,1,2.54.69,0.968,0.968,0,0,0,1.34-.21,0.952,0.952,0,0,0,.17-0.71,0.942,0.942,0,0,0-.39-0.63,6.055,6.055,0,0,0-3.54-1.09c-0.05-1.45-.38-10.11-0.44-14.21a6.987,6.987,0,0,0,1.93.03,2.105,2.105,0,0,1-.02.25,4.315,4.315,0,0,0,.17,1.85l3.18,10.01a0.972,0.972,0,0,0,.81.66,2.527,2.527,0,0,1,1.89,1.74c-0.41,1.22-2.47,7-5.26,8.91l-0.23-.12a0.969,0.969,0,0,0-1.14.18c-7.77,8.11-7.95,8.92-8.01,9.18A10.743,10.743,0,0,1,1343.92,2136.06Zm16.39-17.32a33.633,33.633,0,0,0,5.26,6l0.01,0.01c0.7,0.68,1.31,1.26,1.7,1.71a4.841,4.841,0,0,1,.91,2.17,3.919,3.919,0,0,0-3.1-.49,4.6,4.6,0,0,0-2.84,3.19,10.394,10.394,0,0,1-2.3-1.07,2.608,2.608,0,0,1-.21-1.19,0.932,0.932,0,0,0-.5-0.92l-3.53-1.88C1357.82,2124.38,1359.39,2121.08,1360.31,2118.74Zm3.71,13.32a2.954,2.954,0,0,1,1.62-2.09c1.06-.32,2.24.74,2.68,1.19a0.244,0.244,0,0,1-.01.07,1.057,1.057,0,0,0,.02.31l0.27,1.19a1.83,1.83,0,0,1,.04.57c-0.15,2.53-.16,5.82.73,7.18a65.685,65.685,0,0,1,2.85,5.99l-2.85-4.21a2.384,2.384,0,0,1-.23-0.45l-2.85-8.1a0.965,0.965,0,0,0-.4-0.49Zm13.19,18.01-2.4-.38a1.126,1.126,0,0,1-.67-0.39,2.506,2.506,0,0,0,.89.24l1.02,0.09a3.091,3.091,0,0,1,1.35.45Zm-5.15-13.7a2.308,2.308,0,0,1-1.43,1.85,25.256,25.256,0,0,1-.1-4.43,3,3,0,0,1,1.53,2.58h0Zm0.99,2.38c-0.03.31-.06,0.66-0.09,1.02l-0.3-.63Q1372.87,2138.945,1373.05,2138.75Zm2.35-3.39c0.45,0.73.27,2.07-.46,3.75,0.09-1.03.15-2,.15-2.65a3.081,3.081,0,0,0-.36-1.55A0.926,0.926,0,0,1,1375.4,2135.36Z" transform="translate(-1336 -2076)"/>
</svg>
