<svg xmlns="http://www.w3.org/2000/svg" width="70" height="70" viewBox="0 0 70 70">
  <defs>
    <style>
      .cls-1 {
        fill: #574d19;
        fill-rule: evenodd;
      }
    </style>
  </defs>
  <path id="Фигура_3" data-name="Фигура 3" class="cls-1" d="M994.992,2514.71a1.289,1.289,0,0,0-.473-0.88,1.3,1.3,0,0,0-1.832.19,49.942,49.942,0,0,0-3.515,4.85,7.633,7.633,0,0,1-4.027-4.05,49.745,49.745,0,0,0,4.836-3.51,1.289,1.289,0,0,0,.473-0.87,1.3,1.3,0,0,0-2.12-1.14c-5.944,4.85-11.486,7.18-19.262,10.19-9.68,3.74-16.651,8.48-21.936,14.93-4.75,5.8-7.685,12.45-10.792,19.49l0.643,0.28h0l-0.644-.28h0c-0.293.66-.612,1.41-0.885,2.06-1.7,4.04-3.454,8.22-10.132,15.75a1.3,1.3,0,1,0,1.95,1.73c1.631-1.84,3.028-3.54,4.259-5.19a7.692,7.692,0,0,1,4.163,4.23c-1.634,1.23-3.323,2.61-5.15,4.23a1.3,1.3,0,0,0,.864,2.28,1.31,1.31,0,0,0,.863-0.33c7.539-6.68,11.713-8.43,15.75-10.13,0.6-.25,1.382-0.58,2.069-0.89,7.038-3.1,13.687-6.04,19.482-10.79,6.45-5.28,11.2-12.25,14.938-21.93,3.006-7.78,5.339-13.32,10.191-19.26A1.307,1.307,0,0,0,994.992,2514.71Zm-56.91,39.96,0.644,0.29c6.231-14.12,11.152-25.26,31.285-33.05a95.735,95.735,0,0,0,12.888-5.75c0.11,0.24.241,0.49,0.395,0.76a101.036,101.036,0,0,1-11.679,5.11,1.3,1.3,0,0,0-.745,1.68,1.314,1.314,0,0,0,1.215.84,1.258,1.258,0,0,0,.469-0.09,107.067,107.067,0,0,0,12.32-5.43,10.045,10.045,0,0,0,.924.84l-4.348,6.09a1.3,1.3,0,0,0,.3,1.81,1.283,1.283,0,0,0,.757.24,1.3,1.3,0,0,0,1.06-.54l3.375-4.73a110.945,110.945,0,0,0-4.86,11.25c-7.781,20.13-18.93,25.05-33.044,31.28-0.65.29-1.389,0.6-2.025,0.87a46.728,46.728,0,0,0-9.155,4.81,10.35,10.35,0,0,0-1.3-2.07,46.938,46.938,0,0,0,4.833-7.73c0.389-.75.791-1.53,1.248-2.34,7.556-13.4,14.243-23.48,31.566-31.11a1.305,1.305,0,0,0-1.05-2.39c-8.585,3.79-15.128,8.32-20.592,14.27-4.974,5.42-8.465,11.34-12.193,17.95-0.476.85-.889,1.64-1.29,2.41a43.492,43.492,0,0,1-4.412,7.12,9.645,9.645,0,0,0-1.592-.96,46.68,46.68,0,0,0,4.78-9.12c0.269-.64.583-1.38,0.867-2.02l-0.644-.29h0Zm10.315-13.86a1.254,1.254,0,0,0,.767.25,1.316,1.316,0,0,0,1.052-.53c4.488-6.15,10.31-10.72,18.324-14.38a1.333,1.333,0,0,0,.679-0.73,1.3,1.3,0,0,0-1.762-1.64c-8.436,3.85-14.584,8.69-19.345,15.21a1.309,1.309,0,0,0-.235.97A1.268,1.268,0,0,0,948.4,2540.81Zm23.066,4.8a1.306,1.306,0,0,0-1.82.28c-4.487,6.16-10.309,10.73-18.323,14.39a1.3,1.3,0,0,0,.541,2.48,1.429,1.429,0,0,0,.541-0.11c8.437-3.86,14.584-8.69,19.346-15.22A1.3,1.3,0,0,0,971.463,2545.61Z" transform="translate(-925 -2509)"/>
</svg>
