<?xml version="1.0" encoding="utf-8"?>
<svg xmlns="http://www.w3.org/2000/svg"
	xmlns:xlink="http://www.w3.org/1999/xlink"
	width="16px" height="7px" viewBox="0 0 16 7">
<path fillRule="evenodd" d="M 7.73 6.75C 7.73 6.75 1.26 1.46 1.26 1.46 0.85 1.13 0.85 0.58 1.26 0.25 1.68-0.09 2.34-0.09 2.75 0.25 2.75 0.25 8.48 4.92 8.48 4.92 8.48 4.92 14.2 0.25 14.2 0.25 14.62-0.09 15.28-0.09 15.69 0.25 16.11 0.58 16.11 1.13 15.69 1.47 15.69 1.47 9.22 6.75 9.22 6.75 9.02 6.92 8.75 7 8.48 7 8.21 7 7.94 6.92 7.73 6.75Z" fill="rgb(51,51,51)" opacity="0.30"/></svg>