<?xml version="1.0" encoding="utf-8"?>
<!-- Generator: Adobe Illustrator 21.0.0, SVG Export Plug-In . SVG Version: 6.00 Build 0)  -->
<svg version="1.1" id="Слой_1" xmlns="http://www.w3.org/2000/svg" xmlns:xlink="http://www.w3.org/1999/xlink" x="0px" y="0px"
	 width="97px" height="84.4px" viewBox="0 0 97 84.4" style="enable-background:new 0 0 97 84.4;" xml:space="preserve">
<style type="text/css">
	.st0{fill:#FFFFFF;}
</style>
<g>
	<polygon class="st0" points="51.1,32.1 43.9,34.7 43.9,25 49.4,23 49.4,18.7 43.9,20.7 43.9,12.5 51,9.9 51,5.6 37.8,10.4 
		37.8,41.2 51.1,36.3 	"/>
	<path class="st0" d="M60.7,19.4l2.8-1c2.7-1,4.7-2.4,6.2-4.3c1.5-1.9,2.2-4.3,2.2-7.5c0-5.9-2.6-7.9-7.9-6l-9.6,3.5V35l6.1-2.3
		V19.4z M60.7,6.4l2.2-0.8c1-0.4,1.7-0.5,2.2-0.3c0.5,0.2,0.8,0.5,1,1c0.1,0.5,0.2,1.3,0.2,2.4c0,1.6-0.2,2.8-0.7,3.6
		c-0.4,0.8-1.3,1.4-2.7,1.9L60.7,15V6.4z"/>
	<polygon class="st0" points="34.3,38.2 27.2,40.9 27.2,31.2 32.6,29.2 32.6,24.8 27.2,26.9 27.2,18.7 34.2,16.1 34.2,11.7 21,16.6 
		21,47.4 34.3,42.5 	"/>
	<polygon class="st0" points="17.6,17.9 11.6,20.1 6.1,35.1 6.1,22.1 0,24.3 0,55.1 6.1,52.9 6.1,40.8 7.1,38.7 11.8,50.8 
		18.1,48.5 11.9,33.8 	"/>
	<path class="st0" d="M97,44.2c-0.2-0.5-0.8-0.8-1.3-0.6l-16.1,5.9l-7.6-16.7c-0.2-0.4-0.7-0.7-1.1-0.6c-0.5,0.1-0.8,0.5-0.8,1v40.2
		l-6.1-17c-0.2-0.5-0.8-0.8-1.3-0.6l-7.3,2.6v-12l5.5-2v-1.7L48,47.3V49l5.6-2v12l-8.2,2.9V48.3l-1.8,0.6v13.6l-11.1,3.9V54.6
		l7.4-2.7v-1.6l-9.1,3.3v13.5l-10,3.6c-0.5,0.2-0.8,0.8-0.6,1.3c0.2,0.5,0.8,0.8,1.3,0.6l9.4-3.3v15.2l1.8-0.6V68.6l0.1,0l11.1-3.9
		v15.1l1.8-0.6V64l8.2-2.9v15l1.8-0.6v-15l7.1-2.5l7.7,21.6c0.1,0.4,0.5,0.7,0.9,0.7c0.1,0,0.1,0,0.2,0c0.5-0.1,0.8-0.5,0.8-1V37.8
		l6.1,13.3c0.2,0.5,0.8,0.7,1.3,0.5l17-6.2C96.9,45.3,97.1,44.7,97,44.2z"/>
</g>
</svg>
