<?xml version="1.0" encoding="utf-8"?>
<!-- Generator: Adobe Illustrator 21.0.0, SVG Export Plug-In . SVG Version: 6.00 Build 0)  -->
<svg version="1.1" id="Слой_1" xmlns="http://www.w3.org/2000/svg" xmlns:xlink="http://www.w3.org/1999/xlink" x="0px" y="0px"
	 width="1920px" height="138px" viewBox="0 0 1920 138" style="enable-background:new 0 0 1920 138;" xml:space="preserve">
<style type="text/css">
	.st0{fill-rule:evenodd;clip-rule:evenodd;fill:#E2E8ED;}
</style>
<path class="st0" d="M1920.2,36.9l-0.5-0.9c-0.5,0.3-49.4,25.5-129.4,50.5c-48.4,15.1-114.9,32.1-192.8,42
	c78-11.1,144.7-30.1,193.1-47c80.1-27.9,129.1-56.3,129.6-56.5l-0.5-0.9c-0.5,0.3-49.4,28.6-129.5,56.5
	c-64.9,22.6-162.4,49-276,55.2c-15.8,0.5-31.9,0.8-48.2,0.8c-13.5,0-27.1-0.2-40.9-0.4c-125.7-5.5-261.9-34.9-405.3-65.9
	C863.2,36.4,701.3,1.4,554,0.6c-2.3,0-4.5,0-6.8,0C390.7,0.6,251.3,31.7,161.4,58C69,85.1,6.6,113.5,0.1,117
	c-0.5,0.2-0.5,0.2-0.6,0.3l0.5,0.2V138h1920V65.5c0,0-112.4,41.1-280.7,60.8c60.1-8,111.8-18.9,151.3-28.8
	c80.1-20,129.1-40.3,129.6-40.5l-0.4-0.9c-0.5,0.2-49.4,20.5-129.4,40.5c-64.9,16.2-125.8,26.2-179.7,32.2
	c72.3-9.1,134.2-23.4,179.9-36.3c80.1-22.5,129.1-45.3,129.6-45.5l-0.4-0.9c-0.5,0.2-49.4,23-129.5,45.5
	c-45.7,12.8-107.7,27.2-180.1,36.3c72.5-10.1,134.6-26.1,180.4-40.3C1870.8,62.5,1919.7,37.2,1920.2,36.9z M163.1,58.6
	C253.9,32.1,395.5,0.7,554,1.6c147.2,0.8,309,35.8,465.6,69.6c115.8,25,227,49,331.7,60.2c-104.8-9.5-216.1-29.9-332.1-51.2
	C862.8,51.6,701.1,21.9,554,21.1c-159.3-0.9-301.4,25.2-392.6,47.2c-51.8,12.5-92.9,25.1-118.3,33.4c-10.7,3.5-20.9,7.1-28.8,9.9
	C38.1,101.2,90.7,79.7,163.1,58.6z M163.2,68.9C253.9,47,395.5,21.1,554,22.1c147,0.8,308.7,30.5,465,59.1
	c115.6,21.2,226.5,41.5,331,51.1c-104.3-7.9-214.7-24.6-329.7-42.1C865.2,66.6,704.8,42.3,558,41.4c-159.3-0.9-302.5,19.6-394.5,37
	c-52.4,9.9-94,19.8-119.7,26.4c-10.1,2.6-21.7,5.7-30.4,8.2C36.6,104.6,89.6,86.6,163.2,68.9z M1344.2,132.8
	c-103-6.5-211.8-19.9-325-33.7C864.5,80.1,704.5,60.5,558,59.7c-159.3-0.9-302.5,14.6-394.5,27.9c-52.5,7.5-94,15.1-119.6,20.1
	c-12.3,2.4-22,4.4-28.7,5.9c57.2-16.2,272.3-71.1,532.2-71.1c3.5,0,7.1,0,10.6,0c146.8,0.8,307.1,25.2,462.2,48.7
	C1133.1,108.3,1241.6,124.8,1344.2,132.8z M558,73.5C287.2,72,61.4,106.9,10.7,115.6C61,104.5,287,59.1,558,60.7
	c146.4,0.8,306.4,20.5,461.1,39.4c93.7,11.5,184.4,22.6,271.2,29.8C1053.6,114,790.7,74.8,558,73.5z"/>
</svg>
